HIERARCHY
ROOT Hips
{
	OFFSET 0.000000 0.000000 0.000000
	CHANNELS 6 Xposition Yposition Zposition Zrotation Yrotation Xrotation 
	JOINT LHipJoint
	{
		OFFSET 0.000000 0.000000 0.000000
		CHANNELS 3 Zrotation Yrotation Xrotation
		JOINT LeftUpLeg
		{
			OFFSET 1.363060 -1.794630 0.839290
			CHANNELS 3 Zrotation Yrotation Xrotation
			JOINT LeftLeg
			{
				OFFSET 2.448110 -6.726130 0.000000
				CHANNELS 3 Zrotation Yrotation Xrotation
				JOINT LeftFoot
				{
					OFFSET 2.562200 -7.039590 0.000000
					CHANNELS 3 Zrotation Yrotation Xrotation
					JOINT LeftToeBase
					{
						OFFSET 0.157640 -0.433110 2.322550
						CHANNELS 3 Zrotation Yrotation Xrotation
						End Site
						{
							OFFSET 0.000000 0.000000 0.000000
						}
					}
				}
			}
		}
	}
	JOINT RHipJoint
	{
		OFFSET 0.000000 0.000000 0.000000
		CHANNELS 3 Zrotation Yrotation Xrotation
		JOINT RightUpLeg
		{
			OFFSET -1.305520 -1.794630 0.839290
			CHANNELS 3 Zrotation Yrotation Xrotation
			JOINT RightLeg
			{
				OFFSET -2.542530 -6.985550 0.000000
				CHANNELS 3 Zrotation Yrotation Xrotation
				JOINT RightFoot
				{
					OFFSET -2.568260 -7.056230 0.000000
					CHANNELS 3 Zrotation Yrotation Xrotation
					JOINT RightToeBase
					{
						OFFSET -0.164730 -0.452590 2.363150
						CHANNELS 3 Zrotation Yrotation Xrotation
						End Site
						{
							OFFSET 0.000000 0.000000 0.000000
						}
					}
				}
			}
		}
	}
	JOINT LowerBack
	{
		OFFSET 0.000000 0.000000 0.000000
		CHANNELS 3 Zrotation Yrotation Xrotation
		JOINT Spine
		{
			OFFSET 0.028270 2.035590 -0.193380
			CHANNELS 3 Zrotation Yrotation Xrotation
			JOINT Spine1
			{
				OFFSET 0.056720 2.048850 -0.042750
				CHANNELS 3 Zrotation Yrotation Xrotation
				JOINT Neck
				{
					OFFSET 0.000000 0.000000 0.000000
					CHANNELS 3 Zrotation Yrotation Xrotation
					JOINT Neck1
					{
						OFFSET -0.054170 1.746240 0.172020
						CHANNELS 3 Zrotation Yrotation Xrotation
						JOINT Head
						{
							OFFSET 0.104070 1.761360 -0.123970
							CHANNELS 3 Zrotation Yrotation Xrotation
							End Site
							{
								OFFSET 0.000000 0.000000 0.000000
							}
						}
					}
				}
				JOINT LeftShoulder
				{
					OFFSET 0.000000 0.000000 0.000000
					CHANNELS 3 Zrotation Yrotation Xrotation
					JOINT LeftArm
					{
						OFFSET 3.362410 1.200890 -0.311210
						CHANNELS 3 Zrotation Yrotation Xrotation
						JOINT LeftForeArm
						{
							OFFSET 4.983000 -0.000000 -0.000000
							CHANNELS 3 Zrotation Yrotation Xrotation
							JOINT LeftHand
							{
								OFFSET 3.483560 -0.000000 -0.000000
								CHANNELS 3 Zrotation Yrotation Xrotation
								JOINT LeftFingerBase
								{
									OFFSET 0.000000 0.000000 0.000000
									CHANNELS 3 Zrotation Yrotation Xrotation
									JOINT LeftHandIndex1
									{
										OFFSET 0.715260 -0.000000 -0.000000
										CHANNELS 3 Zrotation Yrotation Xrotation
										End Site
										{
											OFFSET 0.000000 0.000000 0.000000
										}
									}
								}
								JOINT LThumb
								{
									OFFSET 0.000000 0.000000 0.000000
									CHANNELS 3 Zrotation Yrotation Xrotation
									End Site
									{
										OFFSET 0.000000 0.000000 0.000000
									}
								}
							}
						}
					}
				}
				JOINT RightShoulder
				{
					OFFSET 0.000000 0.000000 0.000000
					CHANNELS 3 Zrotation Yrotation Xrotation
					JOINT RightArm
					{
						OFFSET -3.136600 1.374050 -0.404650
						CHANNELS 3 Zrotation Yrotation Xrotation
						JOINT RightForeArm
						{
							OFFSET -5.241900 -0.000000 -0.000000
							CHANNELS 3 Zrotation Yrotation Xrotation
							JOINT RightHand
							{
								OFFSET -3.444170 -0.000000 -0.000000
								CHANNELS 3 Zrotation Yrotation Xrotation
								JOINT RightFingerBase
								{
									OFFSET 0.000000 0.000000 0.000000
									CHANNELS 3 Zrotation Yrotation Xrotation
									JOINT RightHandIndex1
									{
										OFFSET -0.622530 -0.000000 -0.000000
										CHANNELS 3 Zrotation Yrotation Xrotation
										End Site
										{
											OFFSET 0.000000 0.000000 0.000000
										}
									}
								}
								JOINT RThumb
								{
									OFFSET 0.000000 0.000000 0.000000
									CHANNELS 3 Zrotation Yrotation Xrotation
									End Site
									{
										OFFSET 0.000000 0.000000 0.000000
									}
								}
							}
						}
					}
				}
			}
		}
	}
}
MOTION
Frames: 9
Frame Time: 0.008333
8.409120 14.541072 -1.925152 -173.098950 19.178877 174.967048 10.819340 16.568391 -12.853973 -15.145779 -15.856446 -22.627852 -2.229671 31.566426 52.249964 -7.153459 25.418575 -16.261848 0.000000 0.000000 0.000000 -14.890262 -9.000653 5.762083 3.892877 -8.335551 17.636180 40.069479 -19.236492 12.656081 5.967126 -5.774319 -21.126080 0.000000 0.000000 0.000000 1.593496 -0.191886 9.982514 0.234106 1.776696 -3.051640 -5.191145 0.563094 -7.932131 -2.673025 0.989139 1.097346 0.000000 0.000000 0.000000 0.000000 0.000000 0.000000 7.129372 -4.565174 12.102823 -57.351370 -23.506232 36.915201 145.605621 -37.695677 0.000002 0.000000 0.000000 0.000000 0.000000 0.000000 0.000000 0.000000 0.000000 0.000000 0.000000 0.000000 0.000000 -9.423815 -7.729520 -18.774749 101.171183 26.388538 43.518209 -92.164530 70.991581 0.000000 0.000000 0.000000 0.000000 0.000000 0.000000 0.000000 0.000000 0.000000 0.000000 0.000000 0.000000 0.000000 
8.395036 14.568576 -1.957144 -173.199199 20.021145 175.064269 10.952607 16.450123 -12.647053 -14.707109 -15.734298 -22.785820 -2.394348 31.560589 52.007637 -6.960924 25.214137 -16.282430 0.000000 0.000000 0.000000 -14.935195 -8.911482 5.634110 3.691680 -8.229037 17.322931 39.811509 -19.132328 12.946550 5.651760 -5.619959 -20.577454 0.000000 0.000000 0.000000 1.588735 -0.127259 9.915479 0.218652 1.844912 -3.058623 -5.371017 0.602277 -7.961757 -2.661716 0.995490 1.175003 0.000000 0.000000 0.000000 0.000000 0.000000 0.000000 7.170137 -4.769883 12.202465 -56.729103 -23.382100 36.590994 146.017956 -37.077265 0.000001 0.000000 0.000000 0.000000 0.000000 0.000000 0.000000 0.000000 0.000000 0.000000 0.000000 0.000000 0.000000 -9.648201 -7.674034 -19.056688 101.253133 25.970188 43.922908 -92.906877 70.668000 0.000000 0.000000 0.000000 0.000000 0.000000 0.000000 0.000000 0.000000 0.000000 0.000000 0.000000 0.000000 0.000000 
8.380953 14.596080 -1.989136 -173.298299 20.871556 175.160030 11.085738 16.328463 -12.439270 -14.263826 -15.602105 -22.933436 -2.557445 31.559252 51.763255 -6.771295 25.018365 -16.298784 0.000000 0.000000 0.000000 -14.982253 -8.826158 5.505484 3.497551 -8.111669 17.002174 39.555865 -19.023614 13.237653 5.345334 -5.464641 -20.031780 0.000000 0.000000 0.000000 1.580464 -0.060433 9.845519 0.203276 1.916037 -3.066912 -5.546698 0.646077 -7.986075 -2.647106 1.000687 1.255314 0.000000 0.000000 0.000000 0.000000 0.000000 0.000000 7.207875 -4.979635 12.303414 -56.095912 -23.248577 36.258101 146.424164 -36.460277 0.000001 0.000000 0.000000 0.000000 0.000000 0.000000 0.000000 0.000000 0.000000 0.000000 0.000000 0.000000 0.000000 -9.867323 -7.608146 -19.346008 101.315127 25.551485 44.338887 -93.646414 70.315857 0.000000 0.000000 0.000000 0.000000 0.000000 0.000000 0.000000 0.000000 0.000000 0.000000 0.000000 0.000000 0.000000 
8.366869 14.623583 -2.021128 -173.396127 21.729857 175.254365 11.218482 16.203575 -12.230795 -13.816276 -15.459735 -23.070315 -2.718676 31.562250 51.517029 -6.584548 24.831291 -16.310481 0.000000 0.000000 0.000000 -15.031410 -8.744922 5.376424 3.310743 -7.983358 16.673672 39.302578 -18.910529 13.529379 5.047873 -5.308660 -19.488826 0.000000 0.000000 0.000000 1.568752 0.008469 9.772767 0.188027 1.989961 -3.076465 -5.718019 0.694384 -8.005235 -2.629261 1.004743 1.337951 0.000000 0.000000 0.000000 0.000000 0.000000 0.000000 7.242507 -5.193897 12.405498 -55.452266 -23.105217 35.916811 146.824130 -35.845072 0.000000 0.000000 0.000000 0.000000 0.000000 0.000000 0.000000 0.000000 0.000000 0.000000 0.000000 0.000000 0.000000 -10.080882 -7.532204 -19.642350 101.357607 25.132902 44.764928 -94.379846 69.937491 0.000000 0.000000 0.000000 0.000000 0.000000 0.000000 0.000000 0.000000 0.000000 0.000000 0.000000 0.000000 0.000000 
8.352786 14.651087 -2.053119 -173.492569 22.595778 175.347303 11.350583 16.075648 -12.021797 -13.364832 -15.307088 -23.196083 -2.877746 31.569400 51.269185 -6.400670 24.652939 -16.317085 0.000000 0.000000 0.000000 -15.082641 -8.668018 5.247163 3.131498 -7.844023 16.337189 39.051675 -18.793257 13.821719 4.759379 -5.152310 -18.948346 0.000000 0.000000 0.000000 1.553680 0.079311 9.697349 0.172955 2.066559 -3.087238 -5.884825 0.747063 -8.019385 -2.608280 1.007677 1.422617 0.000000 0.000000 0.000000 0.000000 0.000000 0.000000 7.273941 -5.412112 12.508533 -54.798628 -22.951569 35.567400 147.217719 -35.232021 0.000000 0.000000 0.000000 0.000000 0.000000 0.000000 0.000000 0.000000 0.000000 0.000000 0.000000 0.000000 0.000000 -10.288552 -7.446610 -19.945327 101.381060 24.714974 45.199723 -95.103886 69.535476 0.000000 0.000000 0.000000 0.000000 0.000000 0.000000 0.000000 0.000000 0.000000 0.000000 0.000000 0.000000 0.000000 
8.336301 14.679368 -2.097114 -173.608619 23.530953 175.455738 11.483097 15.930688 -11.803592 -12.953238 -14.955676 -23.146956 -3.091905 31.429643 50.760987 -6.100258 24.178480 -16.299774 0.000000 0.000000 0.000000 -15.181444 -8.663336 5.111904 2.960241 -7.625545 15.851553 38.703446 -18.797975 14.308090 4.491154 -5.052403 -18.379274 0.000000 0.000000 0.000000 1.564955 0.172890 9.611241 0.159348 2.156261 -3.099678 -6.010235 0.797477 -8.072747 -2.567389 1.025725 1.496117 0.000000 0.000000 0.000000 0.000000 0.000000 0.000000 7.349962 -5.678063 12.541679 -54.029184 -22.936285 35.015270 147.256417 -34.883871 0.000000 0.000000 0.000000 0.000000 0.000000 0.000000 0.000000 0.000000 0.000000 0.000000 0.000000 0.000000 0.000000 -10.527684 -7.336320 -20.246911 101.436244 24.295470 45.799800 -96.082596 68.898400 0.000000 0.000000 0.000000 0.000000 0.000000 0.000000 0.000000 0.000000 0.000000 0.000000 0.000000 0.000000 0.000000 
8.319807 14.707651 -2.141152 -173.722059 24.478083 175.561639 11.613287 15.784027 -11.589497 -12.543938 -14.590295 -23.075651 -3.295161 31.288265 50.249405 -5.806319 23.713791 -16.282162 0.000000 0.000000 0.000000 -15.283156 -8.666775 4.977023 2.801923 -7.391626 15.352100 38.350807 -18.798245 14.800810 4.229975 -4.952434 -17.810883 0.000000 0.000000 0.000000 1.573230 0.267361 9.525308 0.146126 2.248330 -3.113088 -6.130654 0.851575 -8.120620 -2.521511 1.042882 1.570286 0.000000 0.000000 0.000000 0.000000 0.000000 0.000000 7.416484 -5.944940 12.573394 -53.231507 -22.897555 34.447124 147.289955 -34.534427 0.000000 0.000000 0.000000 0.000000 0.000000 0.000000 0.000000 0.000000 0.000000 0.000000 0.000000 0.000000 0.000000 -10.756302 -7.216951 -20.549248 101.474576 23.886357 46.395233 -97.018729 68.257034 0.000000 0.000000 0.000000 0.000000 0.000000 0.000000 0.000000 0.000000 0.000000 0.000000 0.000000 0.000000 0.000000 
8.303314 14.735934 -2.185189 -173.832639 25.436804 175.664937 11.740837 15.636194 -11.379643 -12.136985 -14.211741 -22.982554 -3.486813 31.145687 49.735748 -5.519143 23.260356 -16.263344 0.000000 0.000000 0.000000 -15.387601 -8.678462 4.842958 2.657011 -7.142164 14.838933 37.994030 -18.793665 15.299281 3.975857 -4.852552 -17.243004 0.000000 0.000000 0.000000 1.578501 0.362297 9.439530 0.133352 2.342406 -3.127431 -6.245950 0.909095 -8.162765 -2.470968 1.059116 1.645271 0.000000 0.000000 0.000000 0.000000 0.000000 0.000000 7.472980 -6.211785 12.603572 -52.406674 -22.833326 33.863734 147.319518 -34.183312 0.000000 0.000000 0.000000 0.000000 0.000000 0.000000 0.000000 0.000000 0.000000 0.000000 0.000000 0.000000 0.000000 -10.973467 -7.088983 -20.851649 101.496535 23.489232 46.982891 -97.909194 67.617351 0.000000 0.000000 0.000000 0.000000 0.000000 0.000000 0.000000 0.000000 0.000000 0.000000 0.000000 0.000000 0.000000 
8.286820 14.764217 -2.229226 -173.940189 26.406917 175.765643 11.865443 15.487694 -11.174093 -11.732575 -13.820222 -22.867581 -3.666394 31.001806 49.220420 -5.238616 22.818571 -16.242324 0.000000 0.000000 0.000000 -15.494763 -8.698768 4.710152 2.525952 -6.876828 14.311667 37.633050 -18.784277 15.803570 3.728837 -4.753119 -16.675327 0.000000 0.000000 0.000000 1.580859 0.457371 9.353843 0.121087 2.438185 -3.142669 -6.355877 0.969756 -8.199119 -2.415995 1.074454 1.721218 0.000000 0.000000 0.000000 0.000000 0.000000 0.000000 7.519122 -6.477881 12.631885 -51.555498 -22.742136 33.265247 147.345054 -33.831133 0.000000 0.000000 0.000000 0.000000 0.000000 0.000000 0.000000 0.000000 0.000000 0.000000 0.000000 0.000000 0.000000 -11.178447 -6.952765 -21.153488 101.502657 23.105473 47.560721 -98.753115 66.983783 0.000000 0.000000 0.000000 0.000000 0.000000 0.000000 0.000000 0.000000 0.000000 0.000000 0.000000 0.000000 0.000000 
